<svg xmlns="http://www.w3.org/2000/svg" width="1200" height="630" viewBox="0 0 1200 630">
  <defs>
    <linearGradient id="bg" x1="0%" y1="0%" x2="100%" y2="100%">
      <stop offset="0%" style="stop-color:#0077B6"/>
      <stop offset="50%" style="stop-color:#00B4D8"/>
      <stop offset="100%" style="stop-color:#90E0EF"/>
    </linearGradient>
  </defs>
  <rect width="1200" height="630" fill="url(#bg)"/>
  <!-- Waves -->
  <path d="M0 380 Q300 320 600 380 Q900 440 1200 380 L1200 630 L0 630 Z" fill="rgba(255,255,255,0.1)"/>
  <path d="M0 420 Q300 360 600 420 Q900 480 1200 420 L1200 630 L0 630 Z" fill="rgba(255,255,255,0.08)"/>
  <!-- Sun -->
  <circle cx="950" cy="120" r="60" fill="#FFD700" opacity="0.9"/>
  <!-- Icon house -->
  <g transform="translate(80, 200)" opacity="0.9">
    <path d="M60 90 L120 40 L180 90 L180 150 L60 150 Z" fill="white"/>
    <path d="M0 95 L120 0 L240 95 Z" fill="white"/>
    <rect x="100" y="110" width="40" height="40" fill="#0077B6" rx="4"/>
  </g>
  <!-- Text -->
  <text x="600" y="300" font-family="Arial, sans-serif" font-size="72" font-weight="bold" fill="white" text-anchor="middle">Praia Digital</text>
  <text x="600" y="370" font-family="Arial, sans-serif" font-size="32" fill="rgba(255,255,255,0.9)" text-anchor="middle">Imóveis no Litoral Brasileiro</text>
  <text x="600" y="430" font-family="Arial, sans-serif" font-size="24" fill="rgba(255,255,255,0.75)" text-anchor="middle">Praia Grande • Santos • Guarujá • São Vicente • Itanhaém • Mongaguá • Peruíbe</text>
  <!-- Wave bottom -->
  <path d="M0 500 Q200 460 400 500 Q600 540 800 500 Q1000 460 1200 500 L1200 630 L0 630 Z" fill="rgba(0,0,0,0.15)"/>
</svg>