<svg xmlns="http://www.w3.org/2000/svg" viewBox="0 0 1200 630" width="1200" height="630">
  <defs>
    <linearGradient id="bg" x1="0%" y1="0%" x2="100%" y2="100%">
      <stop offset="0%" style="stop-color:#0077B6"/>
      <stop offset="50%" style="stop-color:#00B4D8"/>
      <stop offset="100%" style="stop-color:#90E0EF"/>
    </linearGradient>
  </defs>
  <rect width="1200" height="630" fill="url(#bg)" rx="0"/>
  <!-- Waves -->
  <path d="M0 380 Q150 320 300 360 Q450 400 600 350 Q750 300 900 340 Q1050 380 1200 330 L1200 630 L0 630 Z" fill="white" fill-opacity="0.15"/>
  <path d="M0 420 Q150 370 300 400 Q450 430 600 390 Q750 350 900 390 Q1050 430 1200 380 L1200 630 L0 630 Z" fill="white" fill-opacity="0.10"/>
  <!-- Sun -->
  <circle cx="950" cy="130" r="60" fill="#FFD700" fill-opacity="0.9"/>
  <circle cx="950" cy="130" r="45" fill="#FFF176"/>
  <!-- Beach umbrella -->
  <polygon points="600,280 540,400 660,400" fill="#FF6B6B"/>
  <polygon points="600,280 555,400 645,400" fill="#EE5A5A"/>
  <rect x="595" y="280" width="10" height="200" fill="#8B4513"/>
  <!-- Palm trees -->
  <g transform="translate(200,200)">
    <rect x="15" y="80" width="10" height="180" fill="#8B4513"/>
    <ellipse cx="20" cy="90" rx="60" ry="20" fill="#2D9B47"/>
    <ellipse cx="-10" cy="100" rx="50" ry="15" fill="#27AE60"/>
    <ellipse cx="50" cy="95" rx="45" ry="15" fill="#2ECC71"/>
  </g>
  <g transform="translate(1000,220) scale(-1,1) translate(-40,0)">
    <rect x="15" y="80" width="10" height="180" fill="#8B4513"/>
    <ellipse cx="20" cy="90" rx="60" ry="20" fill="#2D9B47"/>
    <ellipse cx="-10" cy="100" rx="50" ry="15" fill="#27AE60"/>
    <ellipse cx="50" cy="95" rx="45" ry="15" fill="#2ECC71"/>
  </g>
  <!-- Text -->
  <text x="600" y="520" font-family="Segoe UI, Arial, sans-serif" font-size="72" font-weight="800" fill="white" text-anchor="middle">Praia Digital</text>
  <text x="600" y="590" font-family="Segoe UI, Arial, sans-serif" font-size="28" fill="white" fill-opacity="0.9" text-anchor="middle">Imóveis no Litoral Brasileiro</text>
  <text x="600" y="72" font-family="Segoe UI, Arial, sans-serif" font-size="22" fill="white" fill-opacity="0.8" text-anchor="middle">🏖️ Apartamentos | Casas | Pousadas | Terrenos</text>
</svg>
